<svg width="26" height="24" viewBox="0 0 26 24" fill="none" xmlns="http://www.w3.org/2000/svg">
<g clip-path="url(#clip0_61601_23)">
<path d="M0 9.25313C0 6.11305 2.5455 3.56757 5.68553 3.56757H20.1258C23.2658 3.56757 25.8113 6.11305 25.8113 9.25313V18.3097C25.8113 21.4498 23.2658 23.9953 20.1258 23.9953H5.68553C2.5455 23.9953 0 21.4498 0 18.3097V9.25313Z" fill="white"/>
<path d="M16.9562 0.0203588C18.1132 0.297133 16.3522 3.24052 17.4595 3.56753C18.5667 3.89454 4.07619 4.72461 8.22692 3.54231C12.3777 2.36002 15.7992 -0.256415 16.9562 0.0203588Z" fill="white"/>
<path d="M15.6918 14.8282C16.5314 15.3339 16.5372 16.5493 15.7024 17.063L12.6105 18.9654C11.7413 19.5002 10.6216 18.878 10.6168 17.8575L10.5989 14.0821C10.5941 13.0615 11.7077 12.4287 12.582 12.9552L15.6918 14.8282Z" fill="#323238"/>
<path d="M16.8804 10.8679C17.2277 10.8679 17.5093 10.5976 17.5093 10.2642C17.5093 9.93072 17.2277 9.6604 16.8804 9.6604C16.533 9.6604 16.2515 9.93072 16.2515 10.2642C16.2515 10.5976 16.533 10.8679 16.8804 10.8679Z" fill="#323238"/>
<path d="M15.522 11.8742C15.8693 11.8742 16.1509 11.6039 16.1509 11.2705C16.1509 10.937 15.8693 10.6667 15.522 10.6667C15.1746 10.6667 14.8931 10.937 14.8931 11.2705C14.8931 11.6039 15.1746 11.8742 15.522 11.8742Z" fill="#323238"/>
<path d="M16.8301 12.8805C17.1775 12.8805 17.459 12.6102 17.459 12.2768C17.459 11.9433 17.1775 11.673 16.8301 11.673C16.4828 11.673 16.2012 11.9433 16.2012 12.2768C16.2012 12.6102 16.4828 12.8805 16.8301 12.8805Z" fill="#323238"/>
<path d="M15.1697 10.7673L16.5031 9.78613L17.2075 10.7673L16.5031 11.2453L17.2578 11.849L16.5031 12.7798L15.0691 11.6729L15.1697 10.7673Z" fill="#323238"/>
<path d="M8.27674 12.6792C9.06869 12.6792 9.7107 12.0485 9.7107 11.2704C9.7107 10.4924 9.06869 9.86163 8.27674 9.86163C7.48478 9.86163 6.84277 10.4924 6.84277 11.2704C6.84277 12.0485 7.48478 12.6792 8.27674 12.6792Z" fill="#323238"/>
</g>
<defs>
<clipPath id="clip0_61601_23">
<rect width="25.8113" height="24" fill="white"/>
</clipPath>
</defs>
</svg>
