<svg width="25" height="20" viewBox="0 0 25 20" fill="none" xmlns="http://www.w3.org/2000/svg">
<g clip-path="url(#clip0_61600_6)">
<path d="M24.685 2.84541C23.7604 3.23596 22.7805 3.49357 21.777 3.60987C22.8353 3.00438 23.6271 2.05175 24.0049 0.92954C23.0117 1.49659 21.9235 1.89567 20.7884 2.10926C20.0949 1.39776 19.1932 0.90254 18.2009 0.688222C17.2085 0.473904 16.1716 0.550437 15.2255 0.907836C14.2793 1.26523 13.4679 1.8869 12.8969 2.69173C12.326 3.49657 12.0221 4.44719 12.0249 5.41957C12.023 5.79167 12.0669 6.16269 12.1558 6.52497C10.1398 6.42949 8.16751 5.92865 6.36778 5.05515C4.56805 4.18165 2.98133 2.95513 1.71124 1.4557C1.06324 2.52318 0.865405 3.78662 1.15803 4.98866C1.45065 6.19069 2.21171 7.24088 3.28619 7.9253C2.47869 7.90622 1.68836 7.69843 0.984242 7.3201V7.38027C0.983709 8.49958 1.38866 9.58454 2.13027 10.4508C2.87189 11.3171 3.90443 11.9112 5.05245 12.1322C4.61751 12.2449 4.16884 12.3021 3.71819 12.3021C3.39864 12.3027 3.07983 12.2726 2.76655 12.2124C3.09017 13.1751 3.72057 14.017 4.56954 14.6202C5.4185 15.2235 6.44356 15.5581 7.50127 15.577C5.70666 16.9253 3.48908 17.6563 1.20641 17.6521C0.802543 17.6517 0.399052 17.6284 -0.00195312 17.5825C2.30463 19.0171 4.99868 19.778 7.7506 19.7721C9.6489 19.7848 11.5309 19.4367 13.2872 18.7481C15.0435 18.0595 16.6391 17.0441 17.9812 15.7609C19.3233 14.4776 20.3852 12.9522 21.105 11.2733C21.8249 9.59443 22.1884 7.7955 22.1745 5.98112C22.1745 5.77113 22.1745 5.56114 22.1584 5.35586C23.1499 4.66909 24.0055 3.81899 24.685 2.84541V2.84541Z" fill="white"/>
</g>
<defs>
<clipPath id="clip0_61600_6">
<rect width="24.6857" height="19.2" fill="white" transform="translate(0 0.571167)"/>
</clipPath>
</defs>
</svg>
