<svg width="25" height="20" viewBox="0 0 25 20" fill="none" xmlns="http://www.w3.org/2000/svg">
<g clip-path="url(#clip0_61600_13)">
<path d="M24.5251 4.81082C24.5697 3.78244 24.2189 2.77775 23.5498 2.01719C22.8808 1.25664 21.948 0.802342 20.9563 0.753989C18.2849 0.624185 15.5607 0.571167 12.7783 0.571167H11.9107C9.13358 0.571167 6.40405 0.621443 3.7327 0.753989C2.74072 0.805615 1.80883 1.26246 1.14086 2.02459C0.472883 2.78672 0.123187 3.79212 0.168258 4.82087C0.0483562 6.6043 -0.00542342 8.38042 -0.000133627 10.1611C0.00515617 11.9418 0.0483562 13.7207 0.16385 15.5059C0.11683 16.5362 0.465407 17.5439 1.13328 18.3083C1.80116 19.0727 2.73392 19.5317 3.72741 19.5847C6.53365 19.72 9.41306 19.7794 12.3401 19.7748C15.2718 19.7846 18.1427 19.7212 20.9527 19.5847C21.9463 19.5326 22.8795 19.0746 23.5482 18.3109C24.2168 17.5472 24.5665 16.5399 24.5207 15.5096C24.6362 13.7243 24.6891 11.9445 24.6847 10.1602C24.6941 8.37707 24.6409 6.59394 24.5251 4.81082ZM9.97819 15.0653V5.24136L16.9704 10.1511L9.97819 15.0653Z" fill="white"/>
</g>
<defs>
<clipPath id="clip0_61600_13">
<rect width="24.6857" height="19.2" fill="white" transform="translate(0 0.571167)"/>
</clipPath>
</defs>
</svg>
